<svg width="32" height="32" viewBox="0 0 32 32" fill="none" xmlns="http://www.w3.org/2000/svg">
<path opacity="0.4" d="M10.9366 17.5871L6.00434 18.0233C4.89744 18.0233 4 17.1171 4 15.9994C4 14.8818 4.89744 13.9756 6.00434 13.9756L10.9366 14.4118C11.805 14.4118 12.509 15.1226 12.509 15.9994C12.509 16.8777 11.805 17.5871 10.9366 17.5871Z" fill="#163A34"/>
<path d="M27.4995 17.5069C27.4224 17.5847 27.1344 17.9137 26.8638 18.1869C25.2857 19.8979 21.165 22.6958 19.0094 23.552C18.6821 23.6886 17.8545 23.9794 17.4109 24C16.9876 24 16.5832 23.9016 16.1978 23.7077C15.7163 23.436 15.3323 23.0072 15.12 22.5019C14.9847 22.1524 14.7723 21.1023 14.7723 21.0832C14.5614 19.9361 14.4465 18.0709 14.4465 16.0088C14.4465 14.0466 14.5614 12.2578 14.7345 11.0916C14.7534 11.071 14.9658 9.76831 15.1971 9.32183C15.6203 8.50523 16.448 8 17.3338 8H17.4109C17.9883 8.01909 19.2014 8.52579 19.2014 8.54342C21.2421 9.39967 25.2653 12.0624 26.8827 13.8322C26.8827 13.8322 27.3395 14.2875 27.5373 14.571C27.8456 14.9793 27.9998 15.4845 27.9998 15.9897C27.9998 16.5537 27.8267 17.078 27.4995 17.5069Z" fill="#163A34"/>
</svg>
