<svg width="20" height="20" viewBox="0 0 20 20" fill="none" xmlns="http://www.w3.org/2000/svg">
<path d="M7.2219 2.09712C6.97782 1.85304 6.58209 1.85304 6.33802 2.09712C6.09394 2.3412 6.09394 2.73693 6.33802 2.98101C6.4834 3.12639 6.48274 3.36114 6.33848 3.5051C5.70544 4.13814 5.70432 5.16552 6.33848 5.79835C6.58281 6.04218 6.97854 6.04176 7.22236 5.79743C7.46619 5.55309 7.46577 5.15737 7.22144 4.91354C7.07718 4.76959 7.07651 4.53484 7.2219 4.38945C7.85559 3.75658 7.85478 2.73 7.2219 2.09712Z" fill="#163A34"/>
<path d="M15.4614 4.90581C15.7055 4.66173 15.7055 4.26601 15.4614 4.02192C15.2173 3.77785 14.8216 3.77785 14.5775 4.02192C13.9445 4.65496 13.9438 5.68188 14.578 6.31472C14.8223 6.55854 15.218 6.55812 15.4619 6.31379C15.7057 6.06946 15.7053 5.67373 15.461 5.42991C15.3167 5.28595 15.316 5.0512 15.4614 4.90581Z" fill="#163A34"/>
<path d="M3.50297 5.43049C3.2589 5.18642 2.86317 5.18642 2.61909 5.43049C2.37502 5.67458 2.37502 6.0703 2.61909 6.31438C2.76448 6.45977 2.76382 6.69452 2.61955 6.83848C2.37523 7.0823 2.37481 7.47803 2.61863 7.72236C2.86246 7.96669 3.25818 7.96711 3.50252 7.72328C4.13667 7.09045 4.13601 6.06353 3.50297 5.43049Z" fill="#163A34"/>
<path fill-rule="evenodd" clip-rule="evenodd" d="M9.99964 5.21826C9.04497 5.21826 8.27277 5.99247 8.27277 6.94596V7.51381C5.11684 8.18293 2.74769 10.6428 2.92594 13.6089C2.93916 13.8289 3.12144 14.0006 3.34185 14.0006H16.6582C16.8786 14.0006 17.061 13.8289 17.0741 13.6088C17.2516 10.6427 14.8822 8.18269 11.7266 7.51371V6.94596C11.7266 5.99217 10.9532 5.21826 9.99964 5.21826ZM10.4766 7.34737V6.94596C10.4766 6.68193 10.2623 6.46826 9.99964 6.46826C9.73655 6.46826 9.5228 6.68163 9.5228 6.94596V7.3474C9.68064 7.33847 9.8398 7.33394 10.0001 7.33394C10.16 7.33394 10.3189 7.33846 10.4766 7.34737Z" fill="#163A34"/>
<path d="M2.33183 15.0699C2.50018 14.9348 2.70638 14.8824 2.91676 14.8824H17.0834C17.2938 14.8824 17.5 14.9348 17.6684 15.0699C17.837 15.2053 17.9217 15.3869 17.9586 15.5584C18.0275 15.8786 17.9479 16.2422 17.8521 16.5301C17.5836 17.3352 16.8291 17.879 15.9802 17.879H4.01998C3.17101 17.879 2.41658 17.3354 2.14822 16.5303C2.05238 16.2424 1.97268 15.8786 2.04153 15.5584C2.07842 15.3869 2.16323 15.2053 2.33183 15.0699Z" fill="#163A34"/>
</svg>
