<svg width="26" height="23" viewBox="0 0 26 23" fill="none" xmlns="http://www.w3.org/2000/svg">
<g clip-path="url(#clip0_1117_969)">
<path d="M6.22009 2.37858C9.08472 4.52916 12.166 8.88965 13.2972 11.2297C14.4286 8.88982 17.5097 4.52912 20.3744 2.37858C22.4413 0.8268 25.7904 -0.373876 25.7904 3.44674C25.7904 4.20977 25.3529 9.85658 25.0963 10.7733C24.2044 13.9605 20.9544 14.7734 18.0635 14.2814C23.1168 15.1415 24.4023 17.9902 21.6261 20.839C16.3536 26.2494 14.0479 19.4815 13.4569 17.7474C13.3486 17.4295 13.2979 17.2807 13.2972 17.4072C13.2964 17.2807 13.2457 17.4295 13.1374 17.7474C12.5466 19.4815 10.2411 26.2496 4.96822 20.839C2.19199 17.9902 3.47744 15.1413 8.53078 14.2814C5.63979 14.7734 2.38976 13.9605 1.49801 10.7733C1.24142 9.85649 0.803955 4.20968 0.803955 3.44674C0.803955 -0.373876 4.15306 0.8268 6.21994 2.37858H6.22009Z" fill="#163A34"/>
</g>
<defs>
<clipPath id="clip0_1117_969">
<rect width="24.9057" height="22" fill="white" transform="translate(0.844238 0.897705)"/>
</clipPath>
</defs>
</svg>
