<svg width="18" height="16" viewBox="0 0 18 16" fill="none" xmlns="http://www.w3.org/2000/svg">
<path fill-rule="evenodd" clip-rule="evenodd" d="M17 16H1C0.448 16 0 15.553 0 15C0 14.447 0.448 14 1 14H17C17.552 14 18 14.447 18 15C18 15.553 17.552 16 17 16Z" fill="#163A34"/>
<path fill-rule="evenodd" clip-rule="evenodd" d="M17 2H1C0.448 2 0 1.553 0 1C0 0.447 0.448 0 1 0H17C17.552 0 18 0.447 18 1C18 1.553 17.552 2 17 2Z" fill="#163A34"/>
<path fill-rule="evenodd" clip-rule="evenodd" d="M17 9H1C0.448 9 0 8.553 0 8C0 7.447 0.448 7 1 7H17C17.552 7 18 7.447 18 8C18 8.553 17.552 9 17 9Z" fill="#163A34"/>
</svg>
