<svg width="40" height="40" viewBox="0 0 40 40" fill="none" xmlns="http://www.w3.org/2000/svg">
<path fill-rule="evenodd" clip-rule="evenodd" d="M9.00274 26.1182H4.83441C4.14441 26.1182 3.58441 26.6782 3.58441 27.3682C3.58441 28.0582 4.14441 28.6182 4.83441 28.6182H9.00274C9.69274 28.6182 10.2527 28.0582 10.2527 27.3682C10.2527 26.6782 9.69274 26.1182 9.00274 26.1182Z" fill="#697DDB"/>
<path fill-rule="evenodd" clip-rule="evenodd" d="M9.62275 10.1855H4.83441C4.14441 10.1855 3.58441 10.7455 3.58441 11.4355C3.58441 12.1255 4.14441 12.6855 4.83441 12.6855H9.62275C10.3127 12.6855 10.8727 12.1255 10.8727 11.4355C10.8727 10.7455 10.3127 10.1855 9.62275 10.1855Z" fill="#697DDB"/>
<path fill-rule="evenodd" clip-rule="evenodd" d="M4.83441 20.6185H7.21441C7.90441 20.6185 8.46441 20.0585 8.46441 19.3685C8.46441 18.6785 7.90441 18.1185 7.21441 18.1185H4.83441C4.14441 18.1185 3.58441 18.6785 3.58441 19.3685C3.58441 20.0585 4.14441 20.6185 4.83441 20.6185Z" fill="#697DDB"/>
<path fill-rule="evenodd" clip-rule="evenodd" d="M36.0295 30.2171L33.4279 27.6221C32.9145 27.1104 32.0845 27.1104 31.5745 27.6254C31.0629 28.1371 31.0629 28.9688 31.5762 29.4804L34.1779 32.0738C34.4345 32.3288 34.7695 32.4571 35.1045 32.4571C35.4395 32.4571 35.7762 32.3288 36.0329 32.0721C36.5445 31.5588 36.5429 30.7288 36.0295 30.2171Z" fill="#697DDB"/>
<path opacity="0.4" fill-rule="evenodd" clip-rule="evenodd" d="M23.1 7.54236C17.0033 7.54236 12.0634 12.4857 12.0634 18.584C12.0634 24.6807 17.0033 29.624 23.1 29.624C29.1967 29.624 34.1383 24.6807 34.1383 18.584C34.1383 12.4857 29.1967 7.54236 23.1 7.54236Z" fill="#697DDB"/>
</svg>
