<svg width="40" height="42" viewBox="0 0 40 42" fill="none" xmlns="http://www.w3.org/2000/svg">
<path d="M22.6768 8.16257V16.9776L17.3218 26.0226H9.02691C8.08525 26.0226 7.23525 25.501 6.80691 24.6626C6.38025 23.8243 6.45691 22.8293 7.01191 22.0676L18.1702 6.69757C18.8168 5.80757 19.9085 5.45091 20.9552 5.79257C22.0018 6.13091 22.6768 7.06091 22.6768 8.16257Z" fill="#49AC9B"/>
<path opacity="0.4" d="M17.2928 34.8319V26.0169L22.6478 16.9719H30.9428C31.8845 16.9719 32.7345 17.4936 33.1628 18.3319C33.5895 19.1702 33.5128 20.1652 32.9578 20.9269L21.7995 36.2969C21.1528 37.1869 20.0611 37.5436 19.0145 37.2019C17.9678 36.8636 17.2928 35.9336 17.2928 34.8319Z" fill="#49AC9B"/>
</svg>
