<svg width="23" height="23" viewBox="0 0 23 23" fill="none" xmlns="http://www.w3.org/2000/svg">
<path fill-rule="evenodd" clip-rule="evenodd" d="M11.6643 9.09546C9.90662 9.09546 8.47656 10.5231 8.47656 12.2797C8.47656 14.0362 9.90662 15.4639 11.6643 15.4639C13.422 15.4639 14.8508 14.0362 14.8508 12.2797C14.8508 10.5231 13.422 9.09546 11.6643 9.09546Z" fill="#163A34"/>
<path fill-rule="evenodd" clip-rule="evenodd" d="M17.4762 7.7397C16.8162 7.7397 16.2778 7.20475 16.2778 6.54823C16.2778 5.88939 16.8162 5.35444 17.4762 5.35444C18.1362 5.35444 18.6735 5.88939 18.6735 6.54823C18.6735 7.20475 18.1362 7.7397 17.4762 7.7397ZM11.6636 17.2009C8.9495 17.2009 6.74023 14.9939 6.74023 12.2798C6.74023 9.56571 8.9495 7.35875 11.6636 7.35875C14.3789 7.35875 16.587 9.56571 16.587 12.2798C16.587 14.9939 14.3789 17.2009 11.6636 17.2009ZM16.7271 0.897705H6.96023C3.30245 0.897705 0.844238 3.47055 0.844238 7.30086V16.4945C0.844238 20.3237 3.30245 22.8977 6.96023 22.8977H16.7259C20.3849 22.8977 22.8442 20.3237 22.8442 16.4945V7.30086C22.8442 3.47055 20.386 0.897705 16.7271 0.897705Z" fill="#163A34"/>
</svg>
