<svg width="20" height="21" viewBox="0 0 20 21" fill="none" xmlns="http://www.w3.org/2000/svg">
<path fill-rule="evenodd" clip-rule="evenodd" d="M3.33561 9.3179C3.33561 6.08376 5.96728 3.45292 9.20141 3.45292C12.4347 3.45292 15.0664 6.08376 15.0664 9.3179C15.0664 12.5521 12.4347 15.1837 9.20141 15.1837C5.96728 15.1837 3.33561 12.5521 3.33561 9.3179ZM18.7481 18.0337L14.9156 14.2112C16.0456 12.8937 16.7331 11.1862 16.7331 9.3179C16.7331 5.16542 13.3539 1.78625 9.20141 1.78625C5.04811 1.78625 1.66895 5.16542 1.66895 9.3179C1.66895 13.4712 5.04811 16.8504 9.20141 16.8504C10.8864 16.8504 12.4389 16.2871 13.6947 15.3479L17.5714 19.2137L18.7481 18.0337Z" fill="#163A34"/>
</svg>
