<svg width="20" height="23" viewBox="0 0 20 23" fill="none" xmlns="http://www.w3.org/2000/svg">
<path d="M20 9.92114H19.957C17.9805 9.92114 16.1758 9.31958 14.7148 8.24536V15.9368C14.7148 19.804 11.5781 22.8977 7.71094 22.8977C3.84375 22.8977 0.75 19.804 0.75 15.9368C0.75 12.0696 3.84375 8.93286 7.71094 8.93286C8.05469 8.93286 8.35547 8.97583 8.69922 9.0188V12.886C8.35547 12.7571 8.05469 12.7141 7.71094 12.7141C5.94922 12.7141 4.48828 14.175 4.48828 15.9368C4.48828 17.6985 5.94922 19.1594 7.71094 19.1594C9.47266 19.1594 10.9336 17.6985 10.9336 15.9368V0.897705H14.7148C14.7148 0.940674 14.7148 0.940674 14.7148 0.983643C14.7148 1.28442 14.7148 1.58521 14.8008 1.88599C15.0586 3.30396 15.918 4.55005 17.1211 5.32349C17.9375 5.88208 18.9258 6.18286 19.957 6.18286C19.957 6.18286 19.957 6.18286 20 6.18286V9.92114Z" fill="#163A34"/>
</svg>
