<svg width="21" height="20" viewBox="0 0 21 20" fill="none" xmlns="http://www.w3.org/2000/svg">
<path fill-rule="evenodd" clip-rule="evenodd" d="M13.0017 13.0876C12.8851 13.2876 12.6767 13.396 12.4684 13.396C12.3601 13.396 12.2434 13.3626 12.1434 13.3043L9.8684 11.9376C9.67673 11.8293 9.56007 11.621 9.56007 11.4043V8.46262C9.56007 8.11259 9.8434 7.83759 10.1851 7.83759C10.5267 7.83759 10.8101 8.11259 10.8101 8.46262V11.046L12.7851 12.2376C13.0851 12.4126 13.1851 12.796 13.0017 13.0876ZM10.3267 4.19592C6.66009 4.19592 3.67676 7.17926 3.67676 10.846C3.67676 14.5126 6.66009 17.496 10.3267 17.496C13.9934 17.496 16.9767 14.5126 16.9767 10.846C16.9767 7.17926 13.9934 4.19592 10.3267 4.19592Z" fill="#163A34"/>
<path fill-rule="evenodd" clip-rule="evenodd" d="M5.8639 3.66875C6.15807 3.48708 6.2489 3.10208 6.06723 2.80875C5.88473 2.51458 5.49973 2.42375 5.20723 2.60541C4.06307 3.31125 3.06307 4.26375 2.31557 5.35958C2.1214 5.64458 2.19473 6.03375 2.47973 6.22791C2.58723 6.30208 2.70973 6.33708 2.8314 6.33708C3.0314 6.33708 3.22723 6.24125 3.34807 6.06458C3.99807 5.11208 4.86807 4.28375 5.8639 3.66875Z" fill="#163A34"/>
<path fill-rule="evenodd" clip-rule="evenodd" d="M18.3486 5.35997C17.5936 4.25163 16.5902 3.2958 15.4477 2.5958C15.1536 2.4158 14.7686 2.50747 14.5877 2.80163C14.4077 3.09663 14.4994 3.4808 14.7936 3.66163C15.7877 4.26997 16.6594 5.1008 17.3161 6.06413C17.4369 6.24163 17.6327 6.33663 17.8327 6.33663C17.9536 6.33663 18.0761 6.30163 18.1844 6.2283C18.4694 6.03413 18.5427 5.64497 18.3486 5.35997Z" fill="#163A34"/>
</svg>
