<svg width="20" height="20" viewBox="0 0 20 20" fill="none" xmlns="http://www.w3.org/2000/svg">
<path fill-rule="evenodd" clip-rule="evenodd" d="M9.76046 10.5949C11.8405 10.5949 13.5205 8.91491 13.5205 6.83495C13.6005 4.75495 11.9205 3.07495 9.76046 3.07495C7.68049 3.07495 6.00049 4.75495 6.00049 6.83495C6.00049 8.91491 7.68049 10.5949 9.76046 10.5949Z" fill="#163A34"/>
<path fill-rule="evenodd" clip-rule="evenodd" d="M15.2804 15.6362C15.0404 14.7562 14.5604 13.9562 13.6004 13.3162C12.8004 12.7562 11.5204 12.3562 9.76044 12.3562C6.32047 12.3562 4.64047 13.9562 4.16047 15.6362C4.00047 16.1162 4.24047 16.5962 4.64047 16.8362C6.08047 17.7962 7.84047 18.2762 9.76044 18.2762C11.6004 18.2762 13.3604 17.7162 14.8004 16.8362C15.2004 16.5962 15.4404 16.1162 15.2804 15.6362Z" fill="#163A34"/>
</svg>
